# xmcd
#
# Track frame offsets: 
#        150
#        24492
#        48355
#        70032
#        91872
#        112205
#        133082
#        156927
#
# Disc length: 2323 seconds
#
# Revision: 2
# Processed by: cddbd v1.4PL0 Copyright (c) Steve Scherf et al.
# Submitted via: ExactAudioCopy v0.90b2
#
DISCID=67091108
DTITLE=Bobby Womack - Roads Of Life
DYEAR=1978
DGENRE=R&B
TTITLE0=The Roads Of Life
TTITLE1=How Could You Break My Heart
TTITLE2=Honey Dripper Boogie
TTITLE3=The Roots In Me
TTITLE4=What Are You Doin'
TTITLE5=Give It Up
TTITLE6=Mr. D.J. Don't Stop The Music
TTITLE7=I Honestly Love You
EXTD=
EXTT0=
EXTT1=
EXTT2=
EXTT3=
EXTT4=
EXTT5=
EXTT6=
EXTT7=
PLAYORDER=
